<svg xmlns="http://www.w3.org/2000/svg" xmlns:xlink="http://www.w3.org/1999/xlink" width="600" height="600" viewBox="0 0 600 600">
  <defs>
    <linearGradient id="linear-gradient" x1="0.239" y1="-0.135" x2="0.717" y2="1.029" gradientUnits="objectBoundingBox">
      <stop offset="0" stop-color="#ff1f1f"/>
      <stop offset="1" stop-color="#282424"/>
    </linearGradient>
    <linearGradient id="linear-gradient-2" x1="0.24" y1="-0.022" x2="0.862" y2="0.963" gradientUnits="objectBoundingBox">
      <stop offset="0" stop-color="#bc7f86"/>
      <stop offset="0.109" stop-color="#dd9b9d"/>
      <stop offset="0.197" stop-color="#f5afad"/>
      <stop offset="0.295" stop-color="#f7c7c7"/>
      <stop offset="0.386" stop-color="#f9dbdb"/>
      <stop offset="0.712" stop-color="#b37780"/>
      <stop offset="0.847" stop-color="#d8a0a8"/>
      <stop offset="1" stop-color="#ffccd2"/>
    </linearGradient>
    <linearGradient id="linear-gradient-3" x1="0.387" y1="-0.456" x2="0.632" y2="1.03" xlink:href="#linear-gradient-2"/>
    <linearGradient id="linear-gradient-4" x1="0.281" y1="-0.411" x2="0.719" y2="1.449" xlink:href="#linear-gradient-2"/>
    <linearGradient id="linear-gradient-5" x1="0.094" y1="-0.304" x2="1.124" y2="1.733" xlink:href="#linear-gradient-2"/>
    <linearGradient id="linear-gradient-6" x1="-13.197" y1="-11.855" x2="52.72" y2="47.606" xlink:href="#linear-gradient-2"/>
    <linearGradient id="linear-gradient-7" x1="-8.608" y1="-2.646" x2="22.366" y2="8.311" xlink:href="#linear-gradient-2"/>
    <linearGradient id="linear-gradient-8" x1="-11.452" y1="-3.102" x2="22.621" y2="7.165" xlink:href="#linear-gradient-2"/>
    <linearGradient id="linear-gradient-9" x1="-12.586" y1="-3.838" x2="19.652" y2="6.835" xlink:href="#linear-gradient-2"/>
    <linearGradient id="linear-gradient-10" x1="-28.584" y1="-4.761" x2="35.326" y2="6.799" xlink:href="#linear-gradient-2"/>
    <linearGradient id="linear-gradient-11" x1="-13.447" y1="-4.388" x2="14.022" y2="5.138" xlink:href="#linear-gradient-2"/>
    <linearGradient id="linear-gradient-12" x1="-12.129" y1="-4.288" x2="9.955" y2="4.085" xlink:href="#linear-gradient-2"/>
    <linearGradient id="linear-gradient-13" x1="-46.221" y1="-20.017" x2="24.136" y2="10.88" xlink:href="#linear-gradient-2"/>
    <linearGradient id="linear-gradient-14" x1="-23.28" y1="-10.445" x2="43.226" y2="20.166" xlink:href="#linear-gradient-2"/>
    <linearGradient id="linear-gradient-15" x1="-17.289" y1="-5.857" x2="10.719" y2="4.263" xlink:href="#linear-gradient-2"/>
    <linearGradient id="linear-gradient-16" x1="-50.955" y1="-39.362" x2="11.759" y2="9.223" xlink:href="#linear-gradient-2"/>
    <linearGradient id="linear-gradient-17" x1="-17.483" y1="-16.586" x2="0.647" y2="0.78" xlink:href="#linear-gradient-2"/>
    <linearGradient id="linear-gradient-18" x1="-0.243" y1="0.078" x2="5.239" y2="3.801" xlink:href="#linear-gradient-2"/>
    <linearGradient id="linear-gradient-19" x1="-5.532" y1="-1.003" x2="1.42" y2="0.742" xlink:href="#linear-gradient-2"/>
    <linearGradient id="linear-gradient-22" x1="-19.31" y1="-7.071" x2="7.584" y2="3.207" xlink:href="#linear-gradient-2"/>
    <linearGradient id="linear-gradient-23" x1="-0.224" y1="0.202" x2="0.949" y2="0.843" xlink:href="#linear-gradient-2"/>
    <linearGradient id="linear-gradient-24" x1="-0.042" y1="0.335" x2="1.125" y2="0.69" xlink:href="#linear-gradient-2"/>
  </defs>
  <g id="Group_2" data-name="Group 2" transform="translate(-1666.667 -1519)">
    <g id="Group_1" data-name="Group 1" transform="translate(1666.667 1519)">
      <rect id="Rectangle_1" data-name="Rectangle 1" width="600" height="600" fill="url(#linear-gradient)"/>
    </g>
    <g id="Group_11" data-name="Group 11" transform="translate(-470.726 -404.075)">
      <g id="Group_3" data-name="Group 3">
        <path id="Path_1" data-name="Path 1" d="M2650.935,2383.754c-40.387,46.172-98.053,72.653-158.211,72.653a206.868,206.868,0,0,1-123.808-41.068l-.256-.218c-17.9-17.564-26.322-44.733-22.542-72.677,1.9-14.04,7.023-27.052,12.446-40.827,1.459-3.7,2.957-7.507,4.364-11.272,9.043-24.236,11.885-43.554,8.686-59.058l-1.264-6.125-4.207,4.5a189.329,189.329,0,0,1-16.029,14.79,167.688,167.688,0,0,0-15.321,14.178c-10.718,11.705-17.528,24.115-20.24,36.886-2.958,13.913-1.218,29.693,5.034,45.634a108.817,108.817,0,0,0,20.632,33.471l.457.505.14.677a94.494,94.494,0,0,0,3,11.1l3.583,10.616-7.576-8.063a221.565,221.565,0,0,1-28.38-37.527l-1.469-2.443.146-.066c-3.262-5.781-9.111-17.446-9.4-18.032l-.176-.351-.062-.39c-8.606-54.153,3.882-82.535,11.344-99.493l.334-.76c1.136-2.584,2.739-6.351,4.595-10.712,13.987-32.858,29.636-68.616,38.331-77.01,3.034-2.93,8.845-6.558,16.2-11.151,20.021-12.5,50.276-31.393,60.052-57.766,5.058-13.642,7.851-30.445,8.3-49.94l.044-1.9,1.789-.452a209.271,209.271,0,0,1,51.252-6.346c60.153,0,117.817,26.479,158.2,72.646a3.158,3.158,0,0,0,4.555.235,3.418,3.418,0,0,0,.227-4.708c-41.61-47.562-101.017-74.84-162.987-74.84a215.914,215.914,0,0,0-50.152,5.882l-2.87.686-.074-3.047a282.881,282.881,0,0,0-2.216-28.893c-4.934,10.625-14.552,26.641-39.026,47.083l-.22.183-.254.126a219.076,219.076,0,0,0-74.456,60.315l-3.179,3.979-1.026-5.052c-.612-3.014-1.336-6.078-2.151-9.108-7.212-26.8-33.163-55.751-45.022-67.933,1.563,12.745-.616,33.405-6.463,60.744-7.74,36.195-2.438,65.838,16.686,93.29l.7,1-.351,1.181a234.6,234.6,0,0,0-9.674,66.875,232.171,232.171,0,0,0,16.731,86.992l3.064,7.623-6.624-4.6c-6.053-4.208-10.384-11.4-12.874-21.382-8.826-35.377-21.809-62.872-38.588-81.722-16.174-18.169-36.744-28.3-47.291-32.638,4.229,8.538,4.827,19.279,5.544,32.131.892,16.005,2,35.923,11.019,58.556,12.279,30.818,45.4,40.128,65.2,45.691,5.973,1.679,10.691,3,13.889,4.559a47.831,47.831,0,0,1,16.649,13.429l.142.179.107.2a227.936,227.936,0,0,0,64.542,75.469l.126.094.281.209a213.1,213.1,0,0,0,127.836,42.525c61.978,0,121.386-27.281,162.993-74.849a3.421,3.421,0,0,0-.228-4.71A3.16,3.16,0,0,0,2650.935,2383.754Zm-311.2-42.234a105.518,105.518,0,0,0-.952,13.277l-.066,8.258-4.353-6.923a104.93,104.93,0,0,1-8.8-17.484c-4.016-10.24-8.093-25.786-4.714-41.693,2.462-11.576,8.728-22.927,18.626-33.737a162.427,162.427,0,0,1,14.723-13.6c2.542-2.167,5.424-4.623,8.227-7.157l3.995-3.611-.009,5.488c-.02,12.109-3.215,26.782-9.5,43.609-1.387,3.714-2.865,7.469-4.294,11.1C2347.269,2312.628,2341.75,2326.645,2339.736,2341.52Zm-18.272-236.335-.09-1.107.738-.808a3.113,3.113,0,0,0,.23-.277,221.1,221.1,0,0,1,35.96-38.692l9.184-7.748-5.54,10.838c-9.985,19.536-10.588,41-10.988,55.208-.168,5.99-.3,10.721-1.084,13.815-1.821,7.2-7.957,19.43-14.454,32.378-4.135,8.241-8.41,16.761-11.845,24.5a248.855,248.855,0,0,1-13.765,26.206c-1.194,2.025-2.153,3.652-2.677,4.681l-.329,1.207-1.442.34-1.426.308-.932-1.168c-.551-.7-.737-.929-.737-7.552,0-2.573.057-7.829.439-14.122.607-10.03,2.112-23.885,5.834-32.926l.184-.448C2315.413,2153.569,2323.738,2133.346,2321.464,2105.185Zm-49.555-30.333a345.33,345.33,0,0,0,6.426-39.408l.536-5.817,3.68,4.433c15.055,18.134,24.59,34.394,28.339,48.329,10.6,39.4.237,64.573-8.091,84.8l-.19.461a62.431,62.431,0,0,0-2.349,6.958l-1.637,5.886-2.793-5.4a45.758,45.758,0,0,0-4.325-6.865C2277.095,2149.477,2261.844,2121.916,2271.909,2074.852Zm23.273,187.319c-1.689,15.247-2.246,27.89-1.655,37.577l1.277,20.938-5.973-20.05a228.894,228.894,0,0,1-2.542-120.607l1.63-6.484,2.854,6.014C2298.387,2195.6,2297,2245.8,2295.182,2262.171Z" fill="url(#linear-gradient-2)"/>
        <path id="Path_2" data-name="Path 2" d="M2492.339,2443.8a194.794,194.794,0,0,1-116.921-38.854,1.006,1.006,0,0,1-.218-1.372.93.93,0,0,1,1.326-.224,192.953,192.953,0,0,0,115.813,38.485c56.819,0,111.044-25.24,148.772-69.249a.926.926,0,0,1,1.34-.083,1.006,1.006,0,0,1,.081,1.387,200.616,200.616,0,0,1-66.469,51.036A193.477,193.477,0,0,1,2492.339,2443.8Z" fill="url(#linear-gradient-3)"/>
        <path id="Path_3" data-name="Path 3" d="M2639.709,2097.763a.934.934,0,0,1-.7-.319c-37.579-42.474-91.038-66.835-146.668-66.835a194.476,194.476,0,0,0-31.777,2.613.953.953,0,0,1-1.089-.814.98.98,0,0,1,.787-1.126,196.289,196.289,0,0,1,32.079-2.638,193.529,193.529,0,0,1,82.262,18.187,200.371,200.371,0,0,1,65.808,49.286,1.007,1.007,0,0,1-.059,1.388A.93.93,0,0,1,2639.709,2097.763Z" fill="url(#linear-gradient-4)"/>
        <ellipse id="Ellipse_1" data-name="Ellipse 1" cx="11.192" cy="11.577" rx="11.192" ry="11.577" transform="translate(2665.008 2222.094)" fill="url(#linear-gradient-5)"/>
      </g>
      <g id="Group_6" data-name="Group 6">
        <g id="Group_4" data-name="Group 4">
          <path id="Path_4" data-name="Path 4" d="M2470.751,2055.286l.188,1.33-4.141.625-.188-1.33Z" fill="url(#linear-gradient-6)"/>
          <path id="Path_5" data-name="Path 5" d="M2493.337,2049.156l3.991.083a4.885,4.885,0,0,1,5.074,5.294,5.054,5.054,0,0,1-5.341,5.3l-3.932-.082Zm1.441,9.314,2.2.045c2.484.052,3.687-1.658,3.732-3.992.04-2.024-.992-3.916-3.569-3.97l-2.2-.045Z" fill="url(#linear-gradient-7)"/>
          <path id="Path_6" data-name="Path 6" d="M2519.644,2056.852l-5.36-.706-.433,3.521,5.891.776-.366,1.293-7.263-.955,1.293-10.512,7.188.947-.163,1.32-5.612-.739-.373,3.028,5.36.706Z" fill="url(#linear-gradient-8)"/>
          <path id="Path_7" data-name="Path 7" d="M2530.573,2060.869a2.447,2.447,0,0,0,2.209,2.457c1.581.379,2.371-.17,2.581-1.1.224-1-.177-1.663-2.146-2.646-2.449-1.224-3.1-2.295-2.774-3.735.356-1.583,1.845-2.538,4.251-1.96,2.593.622,3.332,2.308,3.167,3.727l-1.606-.385c.018-.907-.365-1.781-1.886-2.146-1.229-.294-2.044.068-2.255,1-.207.921.284,1.424,2.029,2.294,2.89,1.447,3.2,2.722,2.894,4.072-.383,1.706-1.987,2.694-4.633,2.059-2.685-.644-3.577-2.328-3.437-4.022Z" fill="url(#linear-gradient-9)"/>
          <path id="Path_8" data-name="Path 8" d="M2550.432,2058.6l-3.162,10.08-1.544-.518,3.161-10.081Z" fill="url(#linear-gradient-10)"/>
          <path id="Path_9" data-name="Path 9" d="M2565.4,2076l-1.132-.5a5.739,5.739,0,0,1,.385-1.312,3.633,3.633,0,0,1-3.664.02c-2.9-1.288-3.575-4.111-2.426-6.883,1.21-2.919,3.792-4.373,6.851-3.016,2.384,1.058,3.341,2.975,2.905,4.826l-1.492-.662a2.817,2.817,0,0,0-1.933-2.991c-2.284-1.013-3.884.384-4.746,2.466-.806,1.944-.681,4.166,1.538,5.151,2.178.966,3.283-.218,3.905-1.716l.04-.1-2.712-1.2.507-1.224,4.17,1.85Z" fill="url(#linear-gradient-11)"/>
          <path id="Path_10" data-name="Path 10" d="M2574.533,2080.7l5.069-9.212,1.835,1.081c.154,2.921.541,9,.5,10.306l.019.012c.534-1.2,1.356-2.673,2.185-4.179l1.889-3.432,1.318.776-5.068,9.212-1.728-1.017c-.133-2.676-.455-9.231-.456-10.607l-.02-.012c-.483,1.044-1.372,2.671-2.285,4.332l-1.938,3.521Z" fill="url(#linear-gradient-12)"/>
          <path id="Path_11" data-name="Path 11" d="M2606.971,2096.022l-.82,1.044-3.247-2.729.818-1.044Z" fill="url(#linear-gradient-13)"/>
        </g>
        <g id="Group_5" data-name="Group 5">
          <path id="Path_12" data-name="Path 12" d="M2393.55,2379.761l-.8,1.123-3.5-2.683.8-1.123Z" fill="url(#linear-gradient-14)"/>
          <path id="Path_21" data-name="Path 21" d="M2466.469,2406.434l4.111.6a5.13,5.13,0,0,1,4.6,6.119c-.437,3.22-2.845,5.269-6.151,4.787l-4.05-.59Zm.373,9.8,2.262.33c2.559.373,4.006-1.237,4.333-3.642.284-2.084-.556-4.171-3.21-4.558l-2.27-.33Z" transform="translate(857.862 -696.964) rotate(19)" fill="url(#linear-gradient-15)"/>
          <path id="Path_19" data-name="Path 19" d="M2535.056,2408.252l.308,1.362-4.235,1.028-.31-1.361Z" fill="url(#linear-gradient-16)"/>
          <path id="Path_24" data-name="Path 24" d="M4536.989,788.8l-.4,1.511-8.5-2.172-1.4,5.263-1.168-.511,1.75-6.575Z" transform="translate(1283.287 6856.811) rotate(-85)" fill="url(#linear-gradient-17)"/>
          <text id="V" transform="translate(2429.071 2405.902) rotate(20)" fill="#f7c2c2" font-size="24" font-family="Microsoft Himalaya"><tspan x="0" y="0">V</tspan></text>
          <path id="Path_26" data-name="Path 26" d="M528.462,2075.163H526.01v1.963c0,2.3.143,2.466,1.4,2.533l.334.017v.2H523.3v-.2l.334-.017c.78-.033.923-.235.923-2.533v-5.8c0-2.3-.143-2.5-.923-2.533l-.334-.017v-.2H528.4c2.292,0,3.82,1.392,3.82,3.422C532.218,2073.837,530.961,2075.163,528.462,2075.163Zm-.064-6.375h-1.64c-.7,0-.748.269-.748,2.533v3.64h2.451c1.512,0,1.99-1.443,1.99-3.02C530.451,2070.5,529.926,2068.788,528.4,2068.788Z" transform="translate(1930.904 349.1) rotate(-1)" fill="url(#linear-gradient-18)"/>
          <path id="Path_27" data-name="Path 27" d="M2719.634,751.3h-.085c-.208-2.154-1.075-3.338-3.177-3.338h-1.222V752.7a2.222,2.222,0,0,0,2.456-2.24h.085l-.208,4.608h-.085a2.088,2.088,0,0,0-2.249-2.268v4.95h.733c2.444,0,3.74-1.626,4.118-4.151h.085l-.587,4.251h-8.187v-.1h1.32v-9.786h-1.32v-.1h8.016Z" transform="translate(-305.261 2289.27) rotate(-13)" fill="url(#linear-gradient-19)"/>
          <path id="Path_23" data-name="Path 23" d="M2719.634,751.3h-.085c-.208-2.154-1.075-3.338-3.177-3.338h-1.222V752.7a2.222,2.222,0,0,0,2.456-2.24h.085l-.208,4.608h-.085a2.088,2.088,0,0,0-2.249-2.268v4.95h.733c2.444,0,3.74-1.626,4.118-4.151h.085l-.587,4.251h-8.187v-.1h1.32v-9.786h-1.32v-.1h8.016Z" transform="translate(128.27 811.644) rotate(19)" fill="url(#linear-gradient-19)"/>
          <path id="Path_22" data-name="Path 22" d="M2719.634,751.3h-.085c-.208-2.154-1.075-3.338-3.177-3.338h-1.222V752.7a2.222,2.222,0,0,0,2.456-2.24h.085l-.208,4.608h-.085a2.088,2.088,0,0,0-2.249-2.268v4.95h.733c2.444,0,3.74-1.626,4.118-4.151h.085l-.587,4.251h-8.187v-.1h1.32v-9.786h-1.32v-.1h8.016Z" transform="translate(99.238 799.818) rotate(19)" fill="url(#linear-gradient-19)"/>
          <path id="Path_25" data-name="Path 25" d="M2508.767,2413.644c.162,3.034-1.475,5.821-5.075,6.025-3.386.193-5.385-2.206-5.552-5.362s1.633-5.772,5.087-5.969C2506.449,2408.155,2508.592,2410.354,2508.767,2413.644Zm-8.871.515c.124,2.336,1.433,4.265,3.794,4.131,2.552-.145,3.441-2.245,3.32-4.522-.123-2.317-1.358-4.187-3.78-4.05C2500.755,2409.859,2499.773,2411.85,2499.9,2414.159Z" transform="translate(288.853 -287.331) rotate(7)" fill="url(#linear-gradient-22)"/>
          <path id="Path_28" data-name="Path 28" d="M2611.863,2330.842c-.1-.269-.246-.623-.492-1.189-.221-.538-.579-1.4-.788-1.841-.665-1.387-.948-1.642-1.65-1.642h-.492v2.351c0,1.94.123,2.11.677,2.138l.259.014v.17h-3.632v-.17l.258-.014c.542-.028.665-.2.665-2.138v-4.9c0-1.94-.123-2.11-.665-2.138l-.258-.014v-.17h4.494c1.773,0,2.955.779,2.955,2.379a2.293,2.293,0,0,1-1.773,2.252,5.479,5.479,0,0,1-1.724.241,3.327,3.327,0,0,1,2.819,1.841l.579,1.147c.554,1.1.874,1.487,1.243,1.5l.221.014v.17Zm-1.884-9.36h-.948c-.517,0-.591.227-.591,2.138V2326h1.33c1.133,0,1.514-.92,1.514-2.294C2611.284,2322.218,2610.8,2321.481,2609.979,2321.481Z" transform="matrix(0.951, -0.309, 0.309, 0.951, -676.752, 1003.505)" fill="url(#linear-gradient-23)"/>
        </g>
      </g>
      <g id="Group_10" data-name="Group 10" transform="translate(-5.901 -7.874)">
        <g id="Group_7" data-name="Group 7">
          <path id="Path_20" data-name="Path 20" d="M2428.616,2317.689l-.986-1.02,146.131-151.161.986,1.02Z" fill="url(#linear-gradient-24)"/>
        </g>
        <text id="C" transform="translate(2458.393 2232.075)" fill="#f6c4c4" font-size="96" font-family="Microsoft Himalaya"><tspan x="0" y="0">C</tspan></text>
        <text id="M" transform="translate(2523.393 2280.075)" fill="#f7c2c2" font-size="96" font-family="Microsoft Himalaya"><tspan x="0" y="0">M</tspan></text>
      </g>
    </g>
  </g>
</svg>
